<?xml version="1.0" standalone="no"?><!DOCTYPE svg PUBLIC "-//W3C//DTD SVG 1.1//EN" "http://www.w3.org/Graphics/SVG/1.1/DTD/svg11.dtd"><svg t="1593525412991" class="icon" viewBox="0 0 1024 1024" version="1.1" xmlns="http://www.w3.org/2000/svg" p-id="7048" xmlns:xlink="http://www.w3.org/1999/xlink" width="200" height="200"><defs><style type="text/css"></style></defs><path d="M501.127883 107.599623c2.977821 7.92653 2.977821 43.638893 2.977821 43.638893s4.948709-8.925277 31.725562-12.887518c26.774807-3.962242 47.601134 25.775037 47.601134 28.751834 0 2.974751 7.936763 17.850553 14.874779 19.836791 6.936993 1.987261 18.8493 19.837814 16.863063 30.740118-1.987261 10.899234-18.835997 24.799826-23.802102 30.749328-4.963035 5.950526-3.963265 14.875802 4.966105 24.788569 8.92323 9.91379 10.897188 54.53915 3.961218 66.439178-6.939039 11.900028-22.814612 47.602158-15.862269 80.328513 6.946202 32.726356 39.617299 79.211063 56.378032 101.577466 25.536606 31.582299 38.746466 87.211271 45.696762 98.110505 8.063653 28.221762 32.255635 71.230298 57.791218 173.374676 10.365068 39.83117 20.367887 114.617457 13.675464 147.532101-43.62559-7.857968-98.850355 4.0175-108.288309-0.953721-15.084557-7.949043-43.441395-8.903787-105.917308-1.953492-62.478983 6.952342-125.942387-6.950296-128.917138-5.949502-2.974751 0.99977-63.475683 0-81.326237 0s-28.751834-9.923-29.750581-14.875802c-1.000793-4.950755-2.974751-28.750811-2.974751-28.750811s-14.876826-14.876826-4.950755-21.825075c9.924024-6.950296 10.899234-32.724309 7.925507-44.627407-2.974751-11.897981-14.875802-102.150518-3.963265-133.87915 10.912537-31.725562 8.924253-89.251743 3.974521-110.077048-4.951779-20.825304-8.9263-57.526181-8.9263-57.526181l-32.736589 0c0 0 35.701107-105.115036 37.688367-127.927601 1.987261-22.813588-3.963265-113.053845 6.936993-148.754952 10.902304-35.701107 68.428485-57.514925 68.428485-57.514925l0-14.875802c0 0 14.874779 0 17.84953 0 2.973728 0 10.913561-1.987261 9.924024-11.901051-0.98749-9.912767-1.987261-42.638099 5.950526-57.513902 7.936763-14.875802 42.639123-21.825075 42.639123-21.825075C476.328058 78.872349 498.154155 99.674117 501.127883 107.599623zM457.490014 207.777207c-5.821589-4.799306-14.873756 1.987261-18.348903 9.912767-3.475148 7.92653 4.461615 20.338211 6.448876 26.77583 1.987261 6.438643 11.900028 22.314215 10.913561 38.675858-0.98749 16.364713 2.475378 25.789363 5.949502 22.313192 3.475148-3.475148 10.900258-11.900028 13.876032-17.350157 2.974751-5.451152 1.487887-11.400654 0-15.862269-1.486864-4.463662 3.975545-7.938809 3.975545-7.938809s6.437619-7.936763 10.411117-14.375405c3.974521-6.437619 13.389962-14.875802 15.364943-17.361413 1.976004-2.487657-1.974981-8.925277-4.463662-9.414417-2.487657-0.488117-14.375405-2.973728-15.861246-4.461615-1.488911-1.487887-1.989307-11.900028-2.477424-14.388708-0.48914-2.486634-3.487428-3.973498-5.461385 0-1.731434 3.475148-9.912767 9.425673-9.912767 9.425673S463.811999 212.983789 457.490014 207.777207zM456.258976 425.446715c-3.219321-0.988514-9.18008-3.963265-10.168594 1.987261-0.98749 5.949502-5.566786 41.999556-0.500397 59.001789 11.900028 19.838837 10.66899 63.475683 10.66899 63.475683s-12.155854 0.534166-24.753777 0.534166c0.499373 6.928806 0.697895 68.40188-4.252861 85.231173-4.951779 16.875343-26.787086 104.127546-33.446763 127.928624-6.659677 23.803125-3.753487 59.037605 0 66.986647s4.683672 23.801079 1.208525 35.1915 1.487887 15.851013 2.975774 20.312628c1.486864 4.464685 10.912537 2.51017 13.387915 0 2.475378-2.462075 16.863063-14.361079 16.863063-14.361079s-3.369747-10.414187-2.486634-45.140083c7.438413-51.039443 44.138266-121.002888 49.589418-125.464503 5.451152-4.462638 8.924253-11.435447 11.899004-28.261671 5.451152-35.189454 24.300452-79.305207 30.738072-92.180446 6.439666-12.922311 5.463432-31.751145 1.986237-40.188304-3.473101-8.436136-20.322861-38.674834-24.788569-50.086745-4.462638-11.411911-4.959965-44.627407-4.959965-47.602158s-0.988514-11.400654-6.451946-11.400654c-5.461385 0-10.901281 8.9263-10.901281 8.9263S459.477274 426.433182 456.258976 425.446715z" p-id="7049" fill="#e7728e"></path></svg>