<?xml version="1.0" standalone="no"?><!DOCTYPE svg PUBLIC "-//W3C//DTD SVG 1.1//EN" "http://www.w3.org/Graphics/SVG/1.1/DTD/svg11.dtd"><svg t="1593525450936" class="icon" viewBox="0 0 1024 1024" version="1.1" xmlns="http://www.w3.org/2000/svg" p-id="7903" xmlns:xlink="http://www.w3.org/1999/xlink" width="200" height="200"><defs><style type="text/css"></style></defs><path d="M896.79090869 82.08636348a24.34090869 24.34090869 0 0 0-30.02727216-18.57272696l-207.24545479 48.6a25.11818174 25.11818174 0 0 0-19.30909043 22.90909043l-9.28636436 128.61818174H423.67727305a161.1 161.1 0 0 0-159.38181826-138.68181738A161.05909131 161.05909131 0 0 0 103.48181826 285.85454521a161.05909131 161.05909131 0 0 0 160.77272695 160.77272784c24.34090869 0 47.90454521-5.72727305 69.34090958-15.70909131L505.86363653 622.45454521v288.73636348H329.34090869a25.32272695 25.32272695 0 0 0-24.9954539 25.03636436c0 13.58181826 11.45454521 24.99545479 24.9954539 24.9954539h404.55c13.58181826 0 24.99545479-11.45454521 24.99545479-24.9954539a25.32272695 25.32272695 0 0 0-24.99545479-25.03636436H556.59090869V622.45454521l285.87272783-316.63636347a25.11818174 25.11818174 0 0 0 4.29545479-27.12272695 24.95454521 24.95454521 0 0 0-22.86818262-15.01363653H680.95454521l7.8545461-106.48636347 189.40909043-44.3045461a25.93636347 25.93636347 0 0 0 18.57272695-30.76363564zM298.57727305 391.56363652a106.32272695 106.32272695 0 0 1-33.54545479 4.99090869 110.86363653 110.86363653 0 0 1-110.82272695-110.74090868 110.45454521 110.45454521 0 0 1 110.78181738-110.78181827c53.59090869 0 97.93636347 37.84090869 108.6545461 88.60909043H239.25909131a26.14090869 26.14090869 0 0 0-21.43636436 11.4545461 5.44090869 5.44090869 0 0 0-1.43181826 3.55909042 28.67727305 28.67727305 0 0 0-2.12727216 10.71818174c0 5.72727305 2.12727305 12.15 6.42272695 16.44545479l77.89090957 85.74545478z m233.01818174 183.68181827L295.71363653 313.67272695h471.72272695l-235.84090869 261.57272784z" fill="#edea98" p-id="7904"></path></svg>