<?xml version="1.0" standalone="no"?><!DOCTYPE svg PUBLIC "-//W3C//DTD SVG 1.1//EN" "http://www.w3.org/Graphics/SVG/1.1/DTD/svg11.dtd"><svg t="1593525291483" class="icon" viewBox="0 0 1024 1024" version="1.1" xmlns="http://www.w3.org/2000/svg" p-id="3575" id="mx_n_1593525291486" xmlns:xlink="http://www.w3.org/1999/xlink" width="200" height="200"><defs><style type="text/css"></style></defs><path d="M447.447301 801.212169a16.518155 16.518155 0 0 1-16.493032-16.505594V529.070854a16.493032 16.493032 0 0 1 16.493032-16.493033 16.593523 16.593523 0 0 1 11.656919 4.823553 16.329735 16.329735 0 0 1 4.836114 11.66948V784.706575a16.518155 16.518155 0 0 1-16.493033 16.505594z m23.967027-429.949362a100.641413 100.641413 0 0 1-67.152895-37.420216 104.259078 104.259078 0 0 1-10.049068-81.811973l0.075368-0.251226a252.583317 252.583317 0 0 1 69.602355-126.693622l0.75368-0.841609c26.579784-29.569382 42.608047-47.406477 29.770364-87.753484l-0.125614-0.37684-0.175859-0.351717a29.682434 29.682434 0 0 1 0.954662-28.463985A19.444946 19.444946 0 0 1 509.600785 0c30.524043 0 103.166241 139.694603 120.588813 218.994308 18.666143 93.770363-19.419823 130.549951-54.666929 144.894995a16.505594 16.505594 0 0 1-21.128165-22.434543l0.339156-0.678313 0.113052-0.75368a125.92738 125.92738 0 0 0-15.701668-82.038076l-3.127772-5.36369-4.584887 4.182924a108.228459 108.228459 0 0 1-24.670462 16.857312C488.158587 283.798234 474.780765 291.096369 474.717959 312.777233a37.684004 37.684004 0 0 0 8.968793 27.145044l0.47733 0.552698 0.602944 0.389402a16.493032 16.493032 0 0 1-8.905986 30.348184z m-44.743474-115.488911a73.772718 73.772718 0 0 0 6.054563 57.103827l8.252797 14.847498 1.155643-16.945241a75.644357 75.644357 0 0 1 48.411383-65.31894l0.414524-0.163297 0.364279-0.213543c18.239058-10.852993 20.537782-13.327576 20.537782-21.969774v-0.56526a23.489696 23.489696 0 0 1 5.677724-18.075761 19.130913 19.130913 0 0 1 13.541118-6.042002c10.463592 0 17.887341 8.202552 25.800982 20.51266a252.482826 252.482826 0 0 1 31.15211 78.382728l0.452208 2.122866 9.295387-0.602945 0.175859-2.147988a88.368989 88.368989 0 0 0 0-14.005888C607.868106 218.91894 565.963494 129.670658 540.036899 82.088322l-5.388813-9.910893-3.7684 10.652012a155.76055 155.76055 0 0 1-41.69107 62.944848 222.39843 222.39843 0 0 0-62.517762 109.999607z" fill="#bfbfbf" p-id="3576"></path><path d="M753.868499 980.964868H681.97998a50.119725 50.119725 0 0 0 0-9.898332V471.828852a52.946026 52.946026 0 0 0-50.785476-52.933464H392.792934a52.920903 52.920903 0 0 0-52.933464 52.933464v499.237684a48.273209 48.273209 0 0 0 0 9.898332H270.131501a21.517566 21.517566 0 1 0 0 43.035132h483.736998a21.517566 21.517566 0 1 0 0-43.035132z m-361.075565 0a9.88577 9.88577 0 0 1-9.898331-9.898332V471.828852a9.88577 9.88577 0 0 1 9.898331-9.898332h238.426693a9.910893 9.910893 0 0 1 9.898332 9.898332v499.237684a9.910893 9.910893 0 0 1-9.898332 9.898332z m0 0" fill="#bfbfbf" p-id="3577"></path></svg>