<?xml version="1.0" standalone="no"?><!DOCTYPE svg PUBLIC "-//W3C//DTD SVG 1.1//EN" "http://www.w3.org/Graphics/SVG/1.1/DTD/svg11.dtd"><svg t="1593525330661" class="icon" viewBox="0 0 1024 1024" version="1.1" xmlns="http://www.w3.org/2000/svg" p-id="4787" xmlns:xlink="http://www.w3.org/1999/xlink" width="200" height="200"><defs><style type="text/css"></style></defs><path d="M596.529202 431.668637c4.79753-25.350583 16.355215-67.547037 36.363094-91.207582 21.806953-25.568653 27.531278-66.620242 15.864559-100.421019l32.219773-81.776074a20.934675 20.934675 0 0 0-9.976681-26.386413l-82.70287-41.487728V26.386413A20.880158 20.880158 0 0 0 567.41692 5.451738H456.474046a20.880158 20.880158 0 0 0-20.934675 20.934675v64.275994L352.891018 132.368205a20.880158 20.880158 0 0 0-9.976681 26.386414l32.219774 81.776074C363.794495 274.058883 369.246233 315.001437 391.053186 340.733642s32.437843 68.146728 36.690199 91.044029A405.173189 405.173189 0 0 0 107.562796 827.301283v170.039717a20.880158 20.880158 0 0 0 20.934675 20.934675H492.019379a24.314753 24.314753 0 0 1 3.7617 0.327104h27.967417a30.20263 30.20263 0 0 1 3.052973 0h0.545174a29.003248 29.003248 0 0 1 2.998456 0h364.993878a20.880158 20.880158 0 0 0 20.934675-20.934675v-170.475856a405.336741 405.336741 0 0 0-319.74445-395.523611zM389.036043 161.044349l77.033062-38.816377a21.207262 21.207262 0 0 0 11.44865-18.644945V47.266571h68.96449V103.583027a21.04371 21.04371 0 0 0 11.44865 18.699462l77.033062 38.816377-15.046798 38.162168c-19.462706-15.046798-53.263483-27.531278-107.944418-10.249268-54.517383-17.28201-88.31816-4.79753-107.835383 10.249268z m33.74626 152.26705c-12.975137-15.21035-16.736837-49.77437-2.07166-71.581324 18.045254-26.604483 54.517383-21.04371 82.375765-11.66672a20.934675 20.934675 0 0 0 8.831816 1.03583 20.716605 20.716605 0 0 0 8.831816-1.03583c27.640313-9.37699 64.275994-14.937763 82.375765 11.66672 14.665176 21.806953 10.903477 56.370974-2.07166 71.581324-28.94873 33.909812-41.324176 85.483256-46.012671 111.924186a399.230794 399.230794 0 0 0-86.2465 0c-4.524943-26.440931-17.009423-78.177927-45.958153-111.924186z m451.676516 662.985891h-725.08119v-149.105042a362.486078 362.486078 0 0 1 172.002342-308.241282c-41.433211 57.025182-83.029974 154.066124-80.304105 312.384603a20.880158 20.880158 0 0 0 20.934675 20.498536h0.381622a20.880158 20.880158 0 0 0 20.498536-21.316296c-2.180695-130.841719 27.258691-235.515093 84.938082-303.334718A228.100729 228.100729 0 0 1 434.667093 472.829261a363.358356 363.358356 0 0 1 154.55678 0c47.157536 24.532822 155.865197 108.489592 151.612841 357.63403a20.880158 20.880158 0 0 0 20.498536 21.316297h0.436139a20.880158 20.880158 0 0 0 20.934675-20.498536c2.725869-158.482032-38.816377-255.359421-80.249587-312.384603a362.704147 362.704147 0 0 1 172.002342 308.241282z" fill="#d81e06" p-id="4788"></path></svg>